<?xml version="1.0" encoding="UTF-8"?>
<svg fill="darkred" width="64" height="64" version="1.1" viewBox="0 0 16.933 16.933" xmlns="http://www.w3.org/2000/svg">
 <path d="m15.752 1.323c-0.2039 1e-3 -0.40392 0.0559-0.58031 0.15819-1.5037 0.87305-2.6288 1.0855-3.699 1.083-1.0412-2e-3 -2.0556-0.24799-3.2257-0.42405-0.89108-0.13409-1.8796-0.21766-2.9637-0.0268-0.48738 0.0858-0.99139 0.2268-1.5071 0.43486-0.27177 0.1097-0.49259 0.31723-0.61894 0.58167l-3.0424 6.3682c-0.20829 0.43623-0.12744 0.95557 0.20356 1.3079 0.331 0.35231 0.84428 0.46533 1.2926 0.28461 1.1805-0.47632 2.1133-0.43417 3.2446-0.26394 1.0246 0.15418 2.1841 0.44696 3.5689 0.45025 0.60986 1e-3 1.2588-0.0614 1.9443-0.21643l-1.7515 3.6658c-0.2792 0.58423-0.0319 1.2842 0.55249 1.5632 0.58413 0.27902 1.2839 0.0318 1.5629-0.55242l6.0851-12.737c0.3729-0.78121-0.20036-1.6832-1.066-1.6774zm-7.6794 1.9763c1.0973 0.16512 2.1842 0.43434 3.3972 0.43722l-1.0142 2.1228c1.2472 3e-3 2.6279-0.27624 4.2904-1.2415l-1.0142 2.1228c-1.6625 0.96525-3.0431 1.2444-4.2903 1.2415l-1.0142 2.1227c-1.213-3e-3 -2.2999-0.2721-3.3973-0.43721l1.0141-2.1227c-1.2118-0.18234-2.4363-0.23759-3.8576 0.33592l1.0142-2.1228c0.44097-0.17793 0.86302-0.29538 1.2716-0.36732 0.90839-0.15996 1.7502-0.0943 2.586 0.0314zm-1.0142 2.1228-1.0142 2.1228c1.0973 0.16512 2.1843 0.43434 3.3973 0.43723l1.0141-2.1228c-1.213-3e-3 -2.2999-0.27211-3.3973-0.43722z" color="#000000" color-rendering="auto" dominant-baseline="auto" fill-rule="evenodd" image-rendering="auto" shape-rendering="auto" solid-color="#000000" stop-color="#000000" style="font-feature-settings:normal;font-variant-alternates:normal;font-variant-caps:normal;font-variant-east-asian:normal;font-variant-ligatures:normal;font-variant-numeric:normal;font-variant-position:normal;font-variation-settings:normal;inline-size:0;isolation:auto;mix-blend-mode:normal;shape-margin:0;shape-padding:0;text-decoration-color:#000000;text-decoration-line:none;text-decoration-style:solid;text-indent:0;text-orientation:mixed;text-transform:none;white-space:normal"/>
</svg>
